<svg width="149" height="91" viewBox="0 0 149 91" fill="none" xmlns="http://www.w3.org/2000/svg">
<g clip-path="url(#clip0_627_14183)">
<path d="M146.25 90.91C147.708 90.91 148.89 89.728 148.89 88.27C148.89 86.812 147.708 85.63 146.25 85.63C144.792 85.63 143.61 86.812 143.61 88.27C143.61 89.728 144.792 90.91 146.25 90.91Z" fill="#A855F7"/>
<path d="M122.31 90.91C123.768 90.91 124.95 89.728 124.95 88.27C124.95 86.812 123.768 85.63 122.31 85.63C120.852 85.63 119.67 86.812 119.67 88.27C119.67 89.728 120.852 90.91 122.31 90.91Z" fill="#A855F7"/>
<path d="M98.3799 90.91C98.9045 90.912 99.4178 90.7583 99.8549 90.4683C100.292 90.1783 100.633 89.7651 100.835 89.281C101.037 88.797 101.091 88.2639 100.99 87.7492C100.889 87.2345 100.638 86.7613 100.267 86.3897C99.8972 86.0181 99.425 85.7647 98.9107 85.6616C98.3964 85.5586 97.863 85.6105 97.3782 85.8107C96.8934 86.011 96.4789 86.3507 96.1873 86.7867C95.8957 87.2227 95.7399 87.7354 95.7399 88.26C95.7399 88.9611 96.0178 89.6336 96.5126 90.1303C97.0074 90.627 97.6789 90.9073 98.3799 90.91Z" fill="#A855F7"/>
<path d="M74.45 90.91C74.9741 90.91 75.4865 90.7546 75.9223 90.4634C76.3581 90.1722 76.6977 89.7583 76.8983 89.2741C77.0988 88.7899 77.1513 88.257 77.049 87.743C76.9468 87.2289 76.6944 86.7568 76.3238 86.3862C75.9532 86.0156 75.481 85.7632 74.967 85.6609C74.4529 85.5587 73.9201 85.6111 73.4359 85.8117C72.9516 86.0123 72.5378 86.3519 72.2466 86.7877C71.9555 87.2235 71.8 87.7358 71.8 88.26C71.8 88.608 71.8685 88.9526 72.0016 89.2741C72.1348 89.5956 72.33 89.8877 72.5761 90.1338C72.8222 90.3799 73.1143 90.5752 73.4359 90.7083C73.7574 90.8415 74.102 90.91 74.45 90.91Z" fill="#A855F7"/>
<path d="M50.51 90.91C51.968 90.91 53.15 89.728 53.15 88.27C53.15 86.812 51.968 85.63 50.51 85.63C49.052 85.63 47.87 86.812 47.87 88.27C47.87 89.728 49.052 90.91 50.51 90.91Z" fill="#A855F7"/>
<path d="M27.5903 90.5955C28.9388 90.0411 29.5826 88.4984 29.0281 87.1499C28.4737 85.8014 26.9311 85.1577 25.5826 85.7122C24.2341 86.2666 23.5903 87.8092 24.1447 89.1577C24.6992 90.5062 26.2418 91.1499 27.5903 90.5955Z" fill="#A855F7"/>
<path d="M2.64998 85.6601C2.12502 85.6581 1.61135 85.8121 1.17403 86.1025C0.736712 86.3929 0.395495 86.8067 0.193685 87.2913C-0.00812604 87.776 -0.0614455 88.3096 0.0404863 88.8246C0.142418 89.3396 0.394984 89.8126 0.766194 90.1839C1.1374 90.5551 1.61047 90.8076 2.12545 90.9096C2.64043 91.0115 3.17414 90.9582 3.65877 90.7564C4.1434 90.5546 4.55719 90.2134 4.84762 89.7761C5.13804 89.3388 5.29198 88.825 5.29 88.3001C5.28736 87.6007 5.0084 86.9307 4.51388 86.4362C4.01935 85.9416 3.34934 85.6627 2.64998 85.6601Z" fill="#A855F7"/>
<path d="M146.25 69.5C147.708 69.5 148.89 68.318 148.89 66.86C148.89 65.4019 147.708 64.22 146.25 64.22C144.792 64.22 143.61 65.4019 143.61 66.86C143.61 68.318 144.792 69.5 146.25 69.5Z" fill="#A855F7"/>
<path d="M122.31 69.5C123.768 69.5 124.95 68.318 124.95 66.86C124.95 65.4019 123.768 64.22 122.31 64.22C120.852 64.22 119.67 65.4019 119.67 66.86C119.67 68.318 120.852 69.5 122.31 69.5Z" fill="#A855F7"/>
<path d="M98.38 69.5001C98.9049 69.5021 99.4187 69.3481 99.856 69.0576C100.293 68.7672 100.635 68.3534 100.836 67.8688C101.038 67.3842 101.092 66.8505 100.99 66.3355C100.888 65.8206 100.635 65.3474 100.264 64.9762C99.8927 64.605 99.4195 64.3524 98.9045 64.2505C98.3895 64.1486 97.8559 64.2019 97.3713 64.4037C96.8867 64.6055 96.4729 64.9467 96.1825 65.3841C95.892 65.8214 95.738 66.3351 95.7399 66.8601C95.7426 67.5594 96.0217 68.2294 96.5162 68.7239C97.0107 69.2184 97.6806 69.4974 98.38 69.5001Z" fill="#A855F7"/>
<path d="M74.45 69.5001C74.9746 69.5001 75.4873 69.3444 75.9233 69.0528C76.3593 68.7611 76.699 68.3466 76.8993 67.8618C77.0995 67.377 77.1514 66.8437 77.0483 66.3294C76.9452 65.815 76.6919 65.3429 76.3203 64.9727C75.9487 64.6025 75.4755 64.3509 74.9608 64.2498C74.4461 64.1487 73.913 64.2026 73.4289 64.4047C72.9449 64.6068 72.5318 64.948 72.2418 65.3851C71.9518 65.8222 71.798 66.3355 71.8 66.8601C71.8 67.2076 71.8686 67.5517 72.0019 67.8726C72.1352 68.1936 72.3305 68.4851 72.5767 68.7304C72.8229 68.9756 73.1151 69.1699 73.4366 69.302C73.7581 69.434 74.1025 69.5014 74.45 69.5001Z" fill="#A855F7"/>
<path d="M50.51 69.5C51.968 69.5 53.15 68.318 53.15 66.86C53.15 65.4019 51.968 64.22 50.51 64.22C49.052 64.22 47.87 65.4019 47.87 66.86C47.87 68.318 49.052 69.5 50.51 69.5Z" fill="#A855F7"/>
<path d="M27.5927 69.1932C28.9412 68.6388 29.5849 67.0961 29.0305 65.7476C28.476 64.3991 26.9334 63.7554 25.5849 64.3098C24.2364 64.8643 23.5927 66.4069 24.1471 67.7554C24.7015 69.1039 26.2442 69.7476 27.5927 69.1932Z" fill="#A855F7"/>
<path d="M2.64998 69.5001C3.17453 69.5001 3.68724 69.3444 4.12325 69.0528C4.55925 68.7611 4.89893 68.3466 5.0992 67.8618C5.29948 67.377 5.35144 66.8437 5.24837 66.3294C5.14531 65.815 4.89183 65.3429 4.52022 64.9727C4.14861 64.6025 3.67555 64.3509 3.16085 64.2498C2.64614 64.1487 2.11303 64.2026 1.62899 64.4047C1.14494 64.6068 0.73171 64.948 0.44173 65.3851C0.15175 65.8222 -0.00202158 66.3355 -4.21631e-05 66.8601C-4.46563e-05 67.2076 0.0685648 67.5517 0.201862 67.8726C0.335159 68.1936 0.530606 68.4851 0.776813 68.7304C1.02302 68.9756 1.31522 69.1699 1.63668 69.302C1.95813 69.434 2.30245 69.5014 2.64998 69.5001Z" fill="#A855F7"/>
<path d="M146.25 48.0901C147.708 48.0901 148.89 46.9081 148.89 45.4501C148.89 43.992 147.708 42.8101 146.25 42.8101C144.792 42.8101 143.61 43.992 143.61 45.4501C143.61 46.9081 144.792 48.0901 146.25 48.0901Z" fill="#A855F7"/>
<path d="M122.31 48.0901C123.768 48.0901 124.95 46.9081 124.95 45.4501C124.95 43.992 123.768 42.8101 122.31 42.8101C120.852 42.8101 119.67 43.992 119.67 45.4501C119.67 46.9081 120.852 48.0901 122.31 48.0901Z" fill="#A855F7"/>
<path d="M98.3799 48.1001C98.9045 48.102 99.4178 47.9483 99.8549 47.6583C100.292 47.3684 100.633 46.9551 100.835 46.4711C101.037 45.987 101.091 45.4539 100.99 44.9392C100.889 44.4245 100.638 43.9514 100.267 43.5798C99.8972 43.2082 99.425 42.9548 98.9107 42.8517C98.3964 42.7486 97.863 42.8005 97.3782 43.0008C96.8934 43.2011 96.4789 43.5408 96.1873 43.9768C95.8957 44.4128 95.7399 44.9255 95.7399 45.45C95.7399 46.1511 96.0178 46.8236 96.5126 47.3203C97.0074 47.817 97.6789 48.0974 98.3799 48.1001Z" fill="#A855F7"/>
<path d="M74.45 48.1C74.9741 48.1 75.4865 47.9446 75.9223 47.6535C76.3581 47.3623 76.6977 46.9484 76.8983 46.4642C77.0988 45.98 77.1513 45.4471 77.049 44.9331C76.9468 44.419 76.6944 43.9468 76.3238 43.5762C75.9532 43.2056 75.481 42.9532 74.967 42.851C74.4529 42.7487 73.9201 42.8012 73.4359 43.0018C72.9516 43.2024 72.5378 43.542 72.2466 43.9778C71.9555 44.4136 71.8 44.9259 71.8 45.45C71.8 45.798 71.8685 46.1427 72.0016 46.4642C72.1348 46.7857 72.33 47.0778 72.5761 47.3239C72.8222 47.5699 73.1143 47.7652 73.4359 47.8983C73.7574 48.0315 74.102 48.1 74.45 48.1Z" fill="#A855F7"/>
<path d="M50.51 48.0901C51.968 48.0901 53.15 46.9081 53.15 45.4501C53.15 43.992 51.968 42.8101 50.51 42.8101C49.052 42.8101 47.87 43.992 47.87 45.4501C47.87 46.9081 49.052 48.0901 50.51 48.0901Z" fill="#A855F7"/>
<path d="M27.5913 47.7915C28.9398 47.2371 29.5835 45.6944 29.029 44.3459C28.4746 42.9974 26.932 42.3538 25.5835 42.9082C24.235 43.4626 23.5912 45.0052 24.1457 46.3537C24.7001 47.7022 26.2428 48.346 27.5913 47.7915Z" fill="#A855F7"/>
<path d="M2.64996 48.1C3.17408 48.1 3.68646 47.9446 4.12225 47.6535C4.55804 47.3623 4.89763 46.9484 5.09821 46.4642C5.29878 45.98 5.35134 45.4471 5.24908 44.9331C5.14683 44.419 4.89447 43.9468 4.52386 43.5762C4.15326 43.2056 3.68098 42.9532 3.16693 42.851C2.65288 42.7487 2.12015 42.8012 1.63593 43.0018C1.1517 43.2024 0.73778 43.542 0.446594 43.9778C0.155409 44.4136 -6.10352e-05 44.9259 -6.10352e-05 45.45C-6.10352e-05 46.1528 0.279213 46.8269 0.776184 47.3239C1.27316 47.8208 1.94714 48.1 2.64996 48.1Z" fill="#A855F7"/>
<path d="M146.25 26.69C147.708 26.69 148.89 25.5081 148.89 24.05C148.89 22.592 147.708 21.41 146.25 21.41C144.792 21.41 143.61 22.592 143.61 24.05C143.61 25.5081 144.792 26.69 146.25 26.69Z" fill="#A855F7"/>
<path d="M122.31 26.69C123.768 26.69 124.95 25.5081 124.95 24.05C124.95 22.592 123.768 21.41 122.31 21.41C120.852 21.41 119.67 22.592 119.67 24.05C119.67 25.5081 120.852 26.69 122.31 26.69Z" fill="#A855F7"/>
<path d="M98.38 26.66C98.9049 26.662 99.4187 26.508 99.856 26.2175C100.293 25.9271 100.635 25.5133 100.836 25.0287C101.038 24.5441 101.092 24.0104 100.99 23.4954C100.888 22.9805 100.635 22.5074 100.264 22.1362C99.8927 21.765 99.4195 21.5124 98.9045 21.4104C98.3895 21.3085 97.8559 21.3618 97.3713 21.5636C96.8867 21.7654 96.4729 22.1066 96.1825 22.544C95.892 22.9813 95.738 23.495 95.7399 24.02C95.7426 24.7193 96.0217 25.3893 96.5162 25.8839C97.0107 26.3784 97.6806 26.6574 98.38 26.66Z" fill="#A855F7"/>
<path d="M74.45 26.66C74.9746 26.66 75.4873 26.5043 75.9233 26.2127C76.3593 25.921 76.699 25.5066 76.8993 25.0218C77.0995 24.537 77.1514 24.0037 77.0483 23.4893C76.9452 22.975 76.6919 22.5029 76.3203 22.1327C75.9487 21.7624 75.4755 21.5108 74.9608 21.4097C74.4461 21.3086 73.913 21.3625 73.4289 21.5646C72.9449 21.7667 72.5318 22.1079 72.2418 22.545C71.9518 22.9821 71.798 23.4954 71.8 24.02C71.8 24.3675 71.8686 24.7117 72.0019 25.0326C72.1352 25.3536 72.3305 25.645 72.5767 25.8903C72.8229 26.1356 73.1151 26.3299 73.4366 26.4619C73.7581 26.594 74.1025 26.6613 74.45 26.66Z" fill="#A855F7"/>
<path d="M50.51 26.69C51.968 26.69 53.15 25.5081 53.15 24.05C53.15 22.592 51.968 21.41 50.51 21.41C49.052 21.41 47.87 22.592 47.87 24.05C47.87 25.5081 49.052 26.69 50.51 26.69Z" fill="#A855F7"/>
<path d="M27.5937 26.3891C28.9422 25.8347 29.5859 24.292 29.0315 22.9435C28.477 21.595 26.9344 20.9513 25.5859 21.5057C24.2374 22.0602 23.5936 23.6028 24.1481 24.9513C24.7025 26.2998 26.2452 26.9436 27.5937 26.3891Z" fill="#A855F7"/>
<path d="M2.64998 26.66C3.17453 26.66 3.68724 26.5043 4.12325 26.2127C4.55925 25.921 4.89893 25.5066 5.0992 25.0218C5.29948 24.537 5.35144 24.0037 5.24837 23.4893C5.14531 22.975 4.89183 22.5029 4.52022 22.1327C4.14861 21.7624 3.67555 21.5108 3.16085 21.4097C2.64614 21.3086 2.11303 21.3625 1.62899 21.5646C1.14494 21.7667 0.73171 22.1079 0.44173 22.545C0.15175 22.9821 -0.00202158 23.4954 -4.21631e-05 24.02C-4.46563e-05 24.3675 0.0685648 24.7117 0.201862 25.0326C0.335159 25.3536 0.530606 25.645 0.776813 25.8903C1.02302 26.1356 1.31522 26.3299 1.63668 26.4619C1.95813 26.594 2.30245 26.6613 2.64998 26.66Z" fill="#A855F7"/>
<path d="M146.25 5.28C147.708 5.28 148.89 4.09803 148.89 2.64C148.89 1.18197 147.708 0 146.25 0C144.792 0 143.61 1.18197 143.61 2.64C143.61 4.09803 144.792 5.28 146.25 5.28Z" fill="#A855F7"/>
<path d="M122.31 5.28C123.768 5.28 124.95 4.09803 124.95 2.64C124.95 1.18197 123.768 0 122.31 0C120.852 0 119.67 1.18197 119.67 2.64C119.67 4.09803 120.852 5.28 122.31 5.28Z" fill="#A855F7"/>
<path d="M98.3799 5.29C98.9045 5.29198 99.4178 5.13827 99.8549 4.84829C100.292 4.55831 100.633 4.14508 100.835 3.66103C101.037 3.17698 101.091 2.64388 100.99 2.12917C100.889 1.61446 100.638 1.14134 100.267 0.769734C99.8972 0.398123 99.425 0.144709 98.9107 0.0416453C98.3964 -0.0614187 97.863 -0.00952083 97.3782 0.190754C96.8934 0.391029 96.4789 0.730702 96.1873 1.16671C95.8957 1.60271 95.7399 2.11543 95.7399 2.63997C95.7399 3.34107 96.0178 4.01359 96.5126 4.51027C97.0074 5.00696 97.6789 5.28735 98.3799 5.29Z" fill="#A855F7"/>
<path d="M74.45 5.28999C74.9741 5.28999 75.4865 5.13458 75.9223 4.8434C76.3581 4.55221 76.6977 4.13835 76.8983 3.65413C77.0988 3.1699 77.1513 2.63705 77.049 2.123C76.9468 1.60895 76.6944 1.13673 76.3238 0.766126C75.9532 0.395516 75.481 0.143157 74.967 0.0409059C74.4529 -0.061345 73.9201 -0.00884847 73.4359 0.191724C72.9516 0.392296 72.5378 0.731947 72.2466 1.16774C71.9555 1.60353 71.8 2.11585 71.8 2.63997C71.8 2.98797 71.8685 3.33261 72.0016 3.65413C72.1348 3.97564 72.33 4.26773 72.5761 4.51381C72.8222 4.75988 73.1143 4.95509 73.4359 5.08827C73.7574 5.22144 74.102 5.28999 74.45 5.28999Z" fill="#A855F7"/>
<path d="M50.51 5.28C51.968 5.28 53.15 4.09803 53.15 2.64C53.15 1.18197 51.968 0 50.51 0C49.052 0 47.87 1.18197 47.87 2.64C47.87 4.09803 49.052 5.28 50.51 5.28Z" fill="#A855F7"/>
<path d="M27.5922 4.97745C28.9407 4.42301 29.5844 2.88036 29.03 1.53186C28.4755 0.183354 26.9329 -0.460315 25.5844 0.0941215C24.2359 0.648558 23.5921 2.19116 24.1466 3.53966C24.701 4.88816 26.2437 5.53189 27.5922 4.97745Z" fill="#A855F7"/>
<path d="M2.64996 5.28999C3.17408 5.28999 3.68646 5.13458 4.12225 4.8434C4.55804 4.55221 4.89763 4.13835 5.09821 3.65413C5.29878 3.1699 5.35134 2.63705 5.24908 2.123C5.14683 1.60895 4.89447 1.13673 4.52386 0.766126C4.15326 0.395516 3.68098 0.143157 3.16693 0.0409059C2.65288 -0.061345 2.12015 -0.00884847 1.63593 0.191724C1.1517 0.392296 0.73778 0.731947 0.446594 1.16774C0.155409 1.60353 -6.10352e-05 2.11585 -6.10352e-05 2.63997C-6.10352e-05 3.34279 0.279213 4.01683 0.776184 4.51381C1.27316 5.01078 1.94714 5.28999 2.64996 5.28999Z" fill="#A855F7"/>
</g>
<defs>
<clipPath id="clip0_627_14183">
<rect width="148.89" height="90.91" fill="white"/>
</clipPath>
</defs>
</svg>
