<svg width="160" height="160" viewBox="0 0 160 160" fill="none" xmlns="http://www.w3.org/2000/svg">
<mask id="mask0_623_24459" style="mask-type:alpha" maskUnits="userSpaceOnUse" x="-119" y="-119" width="279" height="279">
<circle cx="20.5" cy="20.5" r="137.576" fill="#C4C4C4" stroke="#F8BB54" stroke-width="3.84828"/>
</mask>
<g mask="url(#mask0_623_24459)">
<path d="M-200.071 0.287015C-200.071 0.287015 -90.9613 -17.3688 -62.8965 -85.5184C-36.1815 -150.519 74.5591 -165.87 74.5591 -165.87" stroke="#F59E0B" stroke-width="4.32558" stroke-miterlimit="10"/>
<path d="M-200.071 20.5295C-200.071 20.5295 -76.2258 1.01813 -44.3928 -75.7909C-14.1348 -149.001 111.454 -165.87 111.454 -165.87" stroke="#F59E0B" stroke-width="4.32558" stroke-miterlimit="10"/>
<path d="M-200.071 40.828C-200.071 40.828 -61.5467 19.461 -25.9454 -66.0635C7.96833 -147.539 148.405 -165.87 148.405 -165.87" stroke="#F59E0B" stroke-width="4.32558" stroke-miterlimit="10"/>
<path d="M-200.071 61.0704C-200.071 61.0704 -46.8113 37.7915 -7.44177 -56.3356C30.0154 -146.021 185.356 -165.87 185.356 -165.87" stroke="#F59E0B" stroke-width="4.32558" stroke-miterlimit="10"/>
<path d="M-200.071 81.3129C-200.071 81.3129 -32.0757 56.1785 11.0054 -46.6641C52.0621 -144.503 222.307 -165.87 222.307 -165.87" stroke="#F59E0B" stroke-width="4.32558" stroke-miterlimit="10"/>
<path d="M-200.071 101.612C-200.071 101.612 -17.3968 74.6219 29.5091 -36.8806C74.1093 -143.041 259.202 -165.87 259.202 -165.87" stroke="#F59E0B" stroke-width="4.32558" stroke-miterlimit="10"/>
<path d="M-200.071 121.853C-200.071 121.853 -2.66112 93.0088 47.9568 -27.1527C96.156 -141.523 296.153 -165.87 296.153 -165.87" stroke="#F59E0B" stroke-width="4.32558" stroke-miterlimit="10"/>
<path d="M-200.071 142.152C-200.071 142.152 12.0741 111.395 66.4604 -17.4253C118.203 -140.005 333.104 -165.87 333.104 -165.87" stroke="#F59E0B" stroke-width="4.32558" stroke-miterlimit="10"/>
<path d="M-200.071 162.396C-200.071 162.396 26.7534 129.783 84.9076 -7.69737C140.25 -138.542 370.054 -165.87 370.054 -165.87" stroke="#F59E0B" stroke-width="4.32558" stroke-miterlimit="10"/>
<path d="M-200.071 182.636C-200.071 182.636 41.4887 148.17 103.411 1.97366C162.297 -137.024 407.005 -165.87 407.005 -165.87" stroke="#F59E0B" stroke-width="4.32558" stroke-miterlimit="10"/>
<path d="M-200.071 202.935C-200.071 202.935 56.2243 166.557 121.915 11.7576C184.343 -135.506 443.901 -165.87 443.901 -165.87" stroke="#F59E0B" stroke-width="4.32558" stroke-miterlimit="10"/>
<path d="M-200.071 223.179C-200.071 223.179 70.9033 184.943 140.362 21.429C206.391 -134.044 480.852 -165.87 480.852 -165.87" stroke="#F59E0B" stroke-width="4.32558" stroke-miterlimit="10"/>
<path d="M-200.071 243.423C-200.071 243.423 85.639 203.33 158.866 31.1565C228.437 -132.526 517.803 -165.87 517.803 -165.87" stroke="#F59E0B" stroke-width="4.32558" stroke-miterlimit="10"/>
<path d="M-200.071 263.722C-200.071 263.722 100.374 221.772 177.313 40.8844C250.484 -131.008 554.753 -165.87 554.753 -165.87" stroke="#F59E0B" stroke-width="4.32558" stroke-miterlimit="10"/>
<path d="M-200.071 283.962C-200.071 283.962 115.053 240.104 195.817 50.6119C272.531 -129.546 591.65 -165.87 591.65 -165.87" stroke="#F59E0B" stroke-width="4.32558" stroke-miterlimit="10"/>
</g>
</svg>
