<svg width="164" height="160" viewBox="0 0 164 160" fill="none" xmlns="http://www.w3.org/2000/svg">
<mask id="mask0_623_24480" style="mask-type:alpha" maskUnits="userSpaceOnUse" x="4" y="0" width="279" height="279">
<circle cx="143.5" cy="139.5" r="137.576" fill="#C4C4C4" stroke="#F8BB54" stroke-width="3.84828"/>
</mask>
<g mask="url(#mask0_623_24480)">
<path d="M-77.0708 58.5036C-77.0708 58.5036 -12.1115 46.4704 4.64888 4.35483C20.6779 -36.0177 86.7061 -46.8696 86.7061 -46.8696" stroke="#EF5944" stroke-width="4.32558" stroke-miterlimit="10"/>
<path d="M-77.0708 78.7456C-77.0708 78.7456 2.62416 64.8573 23.1525 14.0263C42.7247 -34.4995 123.657 -46.8696 123.657 -46.8696" stroke="#EF5944" stroke-width="4.32558" stroke-miterlimit="10"/>
<path d="M-77.0708 99.0445C-77.0708 99.0445 17.3033 83.2442 41.5999 23.8102C64.7716 -33.0373 160.608 -46.8696 160.608 -46.8696" stroke="#EF5944" stroke-width="4.32558" stroke-miterlimit="10"/>
<path d="M-77.0708 119.287C-77.0708 119.287 32.0387 101.631 60.1035 33.4816C86.8185 -31.5191 197.559 -46.8696 197.559 -46.8696" stroke="#EF5944" stroke-width="4.32558" stroke-miterlimit="10"/>
<path d="M-77.0708 139.53C-77.0708 139.53 46.7742 120.018 78.6072 43.2091C108.865 -30.0009 234.454 -46.8696 234.454 -46.8696" stroke="#EF5944" stroke-width="4.32558" stroke-miterlimit="10"/>
<path d="M-77.0708 159.828C-77.0708 159.828 61.4533 138.461 97.0546 52.9366C130.968 -28.5391 271.405 -46.8696 271.405 -46.8696" stroke="#EF5944" stroke-width="4.32558" stroke-miterlimit="10"/>
<path d="M-77.0708 180.07C-77.0708 180.07 76.1887 156.792 115.558 62.6644C153.015 -27.0209 308.356 -46.8696 308.356 -46.8696" stroke="#EF5944" stroke-width="4.32558" stroke-miterlimit="10"/>
<path d="M-77.0708 200.313C-77.0708 200.313 90.9243 175.178 134.005 72.3359C175.062 -25.5027 345.307 -46.8696 345.307 -46.8696" stroke="#EF5944" stroke-width="4.32558" stroke-miterlimit="10"/>
<path d="M-77.0708 220.612C-77.0708 220.612 105.603 193.622 152.509 82.1194C197.109 -24.0409 382.202 -46.8696 382.202 -46.8696" stroke="#EF5944" stroke-width="4.32558" stroke-miterlimit="10"/>
<path d="M-77.0708 240.853C-77.0708 240.853 120.339 212.009 170.957 91.8473C219.156 -22.5227 419.153 -46.8696 419.153 -46.8696" stroke="#EF5944" stroke-width="4.32558" stroke-miterlimit="10"/>
<path d="M-77.0708 261.152C-77.0708 261.152 135.074 230.395 189.46 101.575C241.203 -21.0045 456.104 -46.8696 456.104 -46.8696" stroke="#EF5944" stroke-width="4.32558" stroke-miterlimit="10"/>
<path d="M-77.0708 281.396C-77.0708 281.396 149.753 248.783 207.908 111.303C263.25 -19.5423 493.054 -46.8696 493.054 -46.8696" stroke="#EF5944" stroke-width="4.32558" stroke-miterlimit="10"/>
<path d="M-77.0708 301.636C-77.0708 301.636 164.489 267.17 226.411 120.974C285.297 -18.0241 530.005 -46.8696 530.005 -46.8696" stroke="#EF5944" stroke-width="4.32558" stroke-miterlimit="10"/>
<path d="M-77.0708 321.935C-77.0708 321.935 179.224 285.557 244.915 130.758C307.343 -16.5059 566.901 -46.8696 566.901 -46.8696" stroke="#EF5944" stroke-width="4.32558" stroke-miterlimit="10"/>
<path d="M-77.0708 342.179C-77.0708 342.179 193.903 303.943 263.362 140.429C329.391 -15.0441 603.852 -46.8696 603.852 -46.8696" stroke="#EF5944" stroke-width="4.32558" stroke-miterlimit="10"/>
<path d="M-77.0708 362.423C-77.0708 362.423 208.639 322.33 281.866 150.157C351.437 -13.5259 640.803 -46.8696 640.803 -46.8696" stroke="#EF5944" stroke-width="4.32558" stroke-miterlimit="10"/>
<path d="M-77.0708 382.722C-77.0708 382.722 223.374 340.772 300.313 159.884C373.484 -12.0077 677.753 -46.8696 677.753 -46.8696" stroke="#EF5944" stroke-width="4.32558" stroke-miterlimit="10"/>
<path d="M-77.0708 402.962C-77.0708 402.962 238.053 359.104 318.817 169.612C395.531 -10.546 714.65 -46.8696 714.65 -46.8696" stroke="#EF5944" stroke-width="4.32558" stroke-miterlimit="10"/>
</g>
</svg>
